<svg width="400" height="356" viewBox="0 0 400 356" fill="none" xmlns="http://www.w3.org/2000/svg">
<g clip-path="url(#clip0_291_43)">
<path d="M316.823 84.2793C314.06 52.0445 276.299 64.0174 276.299 64.0174L252.353 0.468697C252.353 0.468697 355.505 -10.1229 355.505 79.2138C355.505 168.551 259.261 149.67 185.581 219.666C111.901 289.662 108.217 355.973 108.217 355.973H16.5781C16.5781 355.973 110.059 292.655 185.581 219.666C261.103 146.677 319.586 116.514 316.823 84.2793Z" fill="#BF381A"/>
<path d="M244.064 0.468262L380.832 355.973H285.509C232.454 259.951 265.707 104.08 236.696 104.08C207.685 104.08 162.556 185.589 162.556 227.494C123.439 264.966 56.2428 318.273 0 355.973C63.9271 171.881 117.088 93.5914 244.064 0.468262Z" fill="#0A224E"/>
<path d="M235.775 48.3604C140.452 125.264 133.544 207.693 140.452 247.756L125.255 261.111C125.255 261.111 93.9416 287.129 90.7181 289.661C87.4946 292.194 64.9302 309.002 64.9302 309.002C95.7836 207.232 115.585 128.948 235.775 48.3604Z" fill="#BF381A"/>
<path d="M260.181 21.2623C313.138 12.5129 348.597 47.5107 329.256 86.5816C331.098 62.2466 304.389 41.5242 273.536 56.6494L260.181 21.2623Z" fill="#0A224E"/>
<path d="M158.573 202.734C159.947 200.33 163.288 200.015 165.087 202.12L290.938 349.375C293.157 351.97 291.312 355.973 287.898 355.973H256.402C255.908 355.973 255.425 355.885 254.977 355.678C250.524 353.617 224.939 340.002 202.777 290.45C183.994 248.455 159.748 233.364 149.618 228.651C147.248 227.549 146.103 224.556 147.4 222.287L158.573 202.734Z" fill="#C4BDBD"/>
<path d="M244.064 0.46875L380.832 355.973H285.509C232.454 259.951 265.707 104.081 236.696 104.081C207.685 104.081 162.556 185.589 162.556 227.494C123.439 264.967 56.2428 318.273 0 355.973C63.9271 171.881 117.088 93.5919 244.064 0.46875Z" fill="#0A224E"/>
<path d="M270.335 321.825C268.3 332.295 266.649 340.782 249.254 337.399L252.94 318.442L256.626 299.485C274.022 302.868 272.371 311.355 270.335 321.825Z" fill="#1A1717"/>
<path d="M178.228 214.352C176.22 224.677 174.593 233.048 161.955 230.59L165.59 211.895L169.226 193.2C181.864 195.657 180.236 204.027 178.228 214.352Z" fill="#1A1717"/>
<path d="M283.37 224.585L395.093 223.357L399.895 278.16L283.131 281.218L283.37 224.585Z" fill="#A0D8F1"/>
<path d="M277.314 255.728L283.37 224.585L283.131 281.218L274.154 271.977L277.314 255.728Z" fill="#8ACEED"/>
<path d="M135.514 146.648L283.37 224.585L274.33 271.074L283.131 281.217L271.37 341.699L129.809 175.987L135.514 146.648Z" fill="#A0A0A0"/>
<path d="M283.131 281.218L399.895 278.16L388.397 337.288L271.37 341.699L283.131 281.218Z" fill="#C2C2C2"/>
<path d="M135.513 146.649L164.638 146.223L395.093 223.358L283.37 224.585L135.513 146.649Z" fill="#C1C1C1"/>
<path d="M130.586 172.048L276.806 313.67L271.288 341.718L129.666 175.726L130.586 172.048Z" fill="#9B9B9B"/>
<path d="M258.147 318.782C257.666 323.895 256.301 328.34 254.569 331.385C252.735 334.608 250.944 335.563 249.812 335.456C248.68 335.35 247.099 334.078 245.899 330.57C244.764 327.255 244.252 322.634 244.733 317.52C245.214 312.407 246.579 307.962 248.311 304.917C250.145 301.694 251.935 300.739 253.067 300.846C254.199 300.952 255.781 302.224 256.981 305.732C258.116 309.047 258.628 313.669 258.147 318.782Z" fill="#C4BDBD" stroke="#1A1717" stroke-width="4"/>
<path d="M168.189 218.477C167.722 221.847 166.722 224.746 165.541 226.705C164.949 227.687 164.351 228.368 163.813 228.77C163.282 229.166 162.902 229.229 162.65 229.194C162.398 229.159 162.049 228.996 161.645 228.47C161.237 227.937 160.846 227.119 160.543 226.013C159.939 223.807 159.763 220.746 160.229 217.376C160.696 214.006 161.696 211.107 162.877 209.148C163.469 208.166 164.067 207.485 164.605 207.083C165.136 206.687 165.516 206.624 165.768 206.659C166.021 206.694 166.369 206.858 166.773 207.383C167.181 207.916 167.572 208.734 167.875 209.84C168.479 212.046 168.655 215.107 168.189 218.477Z" fill="#C4BDBD" stroke="#1A1717" stroke-width="3"/>
<path d="M238.723 206.067L276.436 226.516L268.975 264.882L233.72 231.794L238.723 206.067Z" fill="#8ACEED"/>
<path d="M209.51 190.08L233.934 204.198L229.457 227.217L205.912 208.586L209.51 190.08Z" fill="#8ACEED"/>
<path d="M180.925 173.279L205.348 187.397L202.013 204.549L178.467 185.917L180.925 173.279Z" fill="#8ACEED"/>
<path d="M158.057 146.348L164.639 146.223L395.094 223.358L347.212 223.884L158.057 146.348Z" fill="#C7C7C7"/>
<path d="M275.886 318.268L392.678 315.509L388.08 337.12L271.288 341.719L275.886 318.268Z" fill="#BEBEBE"/>
<path d="M285.459 310.738L287.103 303.997L311.72 302.786L309.635 309.041L285.459 310.738Z" fill="#E9E9E9" stroke="#C4BDBD" stroke-width="2"/>
<path d="M363.626 307.979L365.27 301.238L389.887 300.027L387.802 306.282L363.626 307.979Z" fill="#E9E9E9" stroke="#C4BDBD" stroke-width="2"/>
<path d="M314.51 304.934L360.951 302.635L360.031 304.934L313.59 307.233L314.51 304.934Z" fill="#C4BDBD"/>
<path d="M312.671 311.371L359.112 309.072L358.192 311.371L311.751 313.67L312.671 311.371Z" fill="#C4BDBD"/>
<path d="M310.831 318.728L357.272 316.429L356.353 318.728L309.912 321.027L310.831 318.728Z" fill="#C4BDBD"/>
<path d="M283.703 224.467L394.518 223.547L399.576 277.805L343.938 252.515L283.703 224.467Z" fill="#A0DAF3"/>
<path d="M234.963 228.145L270.368 252.055L268.529 263.091L234.963 231.364V228.145Z" fill="#82D2F5"/>
<path d="M210.133 203.775L230.824 215.73L228.985 224.007L208.753 207.914L210.133 203.775Z" fill="#82D2F5"/>
<path d="M181.625 180.325L202.316 192.28L200.477 200.557L180.245 184.463L181.625 180.325Z" fill="#82D2F5"/>
<path d="M244.064 0.46875L234.335 104.253C234.335 104.253 265.707 104.081 236.696 104.081C207.685 104.081 162.556 185.589 162.556 227.494C123.439 264.967 56.2428 318.273 0 355.973C63.9271 171.881 117.088 93.5919 244.064 0.46875Z" fill="#0A224E"/>
<path d="M235.775 48.3604C140.452 125.264 133.544 207.693 140.452 247.756L125.255 261.111C125.255 261.111 93.9416 287.129 90.7181 289.661C87.4946 292.194 64.9302 309.002 64.9302 309.002C95.7836 207.232 115.585 128.948 235.775 48.3604Z" fill="#BF381A"/>
</g>
<defs>
<clipPath id="clip0_291_43">
<rect width="400" height="356" fill="white"/>
</clipPath>
</defs>
</svg>